<svg xmlns="http://www.w3.org/2000/svg" viewBox="0 0 880 1060" font-family="'Helvetica Neue', Arial, sans-serif">
  <defs>
    <marker id="a" viewBox="0 0 10 7" refX="10" refY="3.5" markerWidth="8" markerHeight="6" orient="auto-start-reverse">
      <path d="M0 0L10 3.5 0 7z" fill="#4a90d9"/>
    </marker>
    <marker id="b" viewBox="0 0 10 7" refX="10" refY="3.5" markerWidth="8" markerHeight="6" orient="auto-start-reverse">
      <path d="M0 0L10 3.5 0 7z" fill="#666"/>
    </marker>
    <linearGradient id="bg" x1="0" y1="0" x2="0" y2="1">
      <stop offset="0%" stop-color="#1a1a2e"/>
      <stop offset="100%" stop-color="#16213e"/>
    </linearGradient>
  </defs>

  <rect width="880" height="1060" fill="url(#bg)" rx="12"/>

  <!-- Title -->
  <text x="440" y="38" text-anchor="middle" fill="#e0e0e0" font-size="16" font-weight="bold">Next Actions 依存関係フロー図</text>
  <text x="440" y="56" text-anchor="middle" fill="#777" font-size="10">矢印 = 「これが終わらないと次に進めない」</text>

  <style>
    .n { rx:8; ry:8; stroke-width:1.5; }
    .p1 { fill:#1e3a5f; stroke:#4a90d9; }
    .p2 { fill:#1e4d3a; stroke:#4ad99a; }
    .p3 { fill:#4d3a1e; stroke:#d9a04a; }
    .p4 { fill:#4d1e3a; stroke:#d94a90; }
    .t { fill:#fff; font-size:11px; font-weight:bold; }
    .s { fill:#aaa; font-size:9px; }
    .no { fill:rgba(255,255,255,0.5); font-size:9px; font-weight:bold; }
    .ph { fill:#555; font-size:10px; font-style:italic; }
    .al { stroke:#4a90d9; stroke-width:2; fill:none; marker-end:url(#a); }
    .aw { stroke:#666; stroke-width:1.2; fill:none; marker-end:url(#b); stroke-dasharray:5,3; }
  </style>

  <!-- Grid: 3 columns x=120, x=360, x=600. Row spacing=100. Box=200x44 -->
  <!-- Col centers: 220, 440, 700 -->

  <!-- Phase dividers -->
  <line x1="60" y1="190" x2="820" y2="190" stroke="#333" stroke-width="1" stroke-dasharray="4,4"/>
  <line x1="60" y1="390" x2="820" y2="390" stroke="#333" stroke-width="1" stroke-dasharray="4,4"/>
  <line x1="60" y1="690" x2="820" y2="690" stroke="#333" stroke-width="1" stroke-dasharray="4,4"/>
  <line x1="60" y1="890" x2="820" y2="890" stroke="#333" stroke-width="1" stroke-dasharray="4,4"/>

  <!-- Phase labels -->
  <text x="40" y="118" class="ph" text-anchor="middle">Phase 1</text>
  <text x="40" y="131" class="ph" text-anchor="middle">2-3月</text>
  <text x="40" y="318" class="ph" text-anchor="middle">Phase 2</text>
  <text x="40" y="331" class="ph" text-anchor="middle">4-5月</text>
  <text x="40" y="548" class="ph" text-anchor="middle">Phase 3</text>
  <text x="40" y="561" class="ph" text-anchor="middle">6-7月</text>
  <text x="40" y="798" class="ph" text-anchor="middle">Phase 4</text>
  <text x="40" y="811" class="ph" text-anchor="middle">8-9月</text>
  <text x="40" y="948" class="ph" text-anchor="middle">Phase 5</text>
  <text x="40" y="961" class="ph" text-anchor="middle">直前</text>

  <!-- ===== ROW 1 (y=80): 01 ===== -->
  <rect x="340" y="80" width="200" height="44" class="n p1"/>
  <text x="355" y="100" class="no">01</text>
  <text x="375" y="100" class="t">参加候補メンバーの洗い出し</text>
  <text x="375" y="114" class="s">対象学年・バンド数・観覧者範囲</text>

  <!-- ===== ROW 2 (y=140): 02, 03 ===== -->
  <rect x="220" y="140" width="200" height="44" class="n p1"/>
  <text x="235" y="160" class="no">02</text>
  <text x="255" y="160" class="t">アンケート実施</text>
  <text x="255" y="174" class="s">意向・日程・エリア・パート・役割…</text>

  <rect x="520" y="140" width="200" height="44" class="n p1"/>
  <text x="535" y="160" class="no">03</text>
  <text x="555" y="160" class="t">連絡グループの整備</text>
  <text x="555" y="174" class="s">LINE等（幹事用/全体用）</text>

  <!-- ===== ROW 3 (y=240): 04, 05 ===== -->
  <rect x="220" y="240" width="200" height="44" class="n p2"/>
  <text x="235" y="260" class="no">04</text>
  <text x="255" y="260" class="t">日程を確定する</text>
  <text x="255" y="274" class="s">アンケート結果から決定</text>

  <rect x="520" y="240" width="200" height="44" class="n p2"/>
  <text x="535" y="260" class="no">05</text>
  <text x="555" y="260" class="t">ライブハウスを確定する</text>
  <text x="555" y="274" class="s">人数・エリア・日程から決定</text>

  <!-- ===== ROW 4 (y=340): 06 ===== -->
  <rect x="340" y="340" width="200" height="44" class="n p2"/>
  <text x="355" y="360" class="no">06</text>
  <text x="375" y="360" class="t">予算・会費を決める</text>
  <text x="375" y="374" class="s">PayPay/振込で事前徴収</text>

  <!-- ===== ROW 5 (y=440): 07, 09, 10 ===== -->
  <rect x="100" y="440" width="200" height="44" class="n p3"/>
  <text x="115" y="460" class="no">07</text>
  <text x="135" y="460" class="t">出演バンドの確定</text>
  <text x="135" y="474" class="s">編成調整・助っ人・合体</text>

  <rect x="340" y="440" width="200" height="44" class="n p3"/>
  <text x="355" y="460" class="no">09</text>
  <text x="375" y="460" class="t">記念グッズの手配</text>
  <text x="375" y="474" class="s">Tシャツ等・デザイン・サイズ回収</text>

  <rect x="580" y="440" width="220" height="44" class="n p3"/>
  <text x="595" y="460" class="no">10</text>
  <text x="615" y="460" class="t">観覧者・家族向けの案内</text>
  <text x="615" y="474" class="s">キッズ対応・アクセス情報</text>

  <!-- ===== ROW 6 (y=540): 08, 11 ===== -->
  <rect x="100" y="540" width="200" height="44" class="n p3"/>
  <text x="115" y="560" class="no">08</text>
  <text x="135" y="560" class="t">セットリスト・タイムテーブル</text>
  <text x="135" y="574" class="s">曲目提出・全員セッション</text>

  <rect x="580" y="540" width="220" height="44" class="n p3"/>
  <text x="595" y="560" class="no">11</text>
  <text x="615" y="560" class="t">二次会の手配</text>
  <text x="615" y="574" class="s">居酒屋予約・子連れ・アレルギー対応</text>

  <!-- ===== ROW 7 (y=640): empty spacer row ===== -->

  <!-- ===== ROW 8 (y=740): 12 ===== -->
  <rect x="340" y="740" width="200" height="44" class="n p4"/>
  <text x="355" y="760" class="no">12</text>
  <text x="375" y="760" class="t">当日の運営計画</text>
  <text x="375" y="774" class="s">受付・PA・MC・撮影の役割分担</text>

  <!-- ===== ROW 9 (y=840): リハーサル期間(info only) ===== -->
  <rect x="280" y="840" width="320" height="36" rx="18" fill="none" stroke="#666" stroke-width="1" stroke-dasharray="4,3"/>
  <text x="440" y="863" text-anchor="middle" fill="#888" font-size="11">🎸 各バンド自主リハーサル期間（Phase 4）</text>

  <!-- ===== ROW 10 (y=940): 13 ===== -->
  <rect x="340" y="940" width="200" height="44" class="n p4"/>
  <text x="355" y="960" class="no">13</text>
  <text x="375" y="960" class="t">直前確認・リマインド</text>
  <text x="375" y="974" class="s">会費完了・持ち物・集合時間</text>

  <!-- ===== ARROWS ===== -->

  <!-- 01 → 02: center-bottom to center-top -->
  <path d="M440 124 L440 130 Q440 133 437 133 L320 133 Q317 133 317 136 L317 140" class="al"/>

  <!-- 01 → 03 -->
  <path d="M440 124 L440 130 Q440 133 443 133 L620 133 Q623 133 623 136 L623 140" class="al"/>

  <!-- 02 → 04 -->
  <line x1="320" y1="184" x2="320" y2="240" class="al"/>

  <!-- 02 → 05 (エリア・人数) -->
  <path d="M420 184 L420 210 Q420 213 423 213 L620 213 Q623 213 623 216 L623 240" class="al"/>

  <!-- 04 → 05 -->
  <line x1="420" y1="262" x2="520" y2="262" class="al"/>

  <!-- 04 → 06 -->
  <path d="M370 284 L370 310 Q370 313 373 313 L440 313 Q443 313 443 316 L443 340" class="aw"/>

  <!-- 05 → 06 -->
  <path d="M570 284 L570 310 Q570 313 567 313 L440 313 Q437 313 437 316 L437 340" class="al"/>

  <!-- 02 → 07 (パート・バンド名) -->
  <path d="M220 162 L160 162 Q157 162 157 165 L157 410 Q157 413 160 413 L200 413 Q203 413 203 416 L203 440" class="al"/>

  <!-- 06 → 09 -->
  <line x1="440" y1="384" x2="440" y2="440" class="aw"/>

  <!-- 05 → 10 -->
  <path d="M690 284 L690 410 Q690 413 690 416 L690 440" class="al"/>

  <!-- 07 → 10 -->
  <path d="M300 462 L340 462 Q343 462 346 462 L580 462" class="aw"/>

  <!-- 07 → 08 -->
  <line x1="200" y1="484" x2="200" y2="540" class="al"/>

  <!-- 05 → 11 (会場場所→二次会) -->
  <path d="M720 284 L720 410 Q720 413 720 416 L720 440 Q720 443 717 443 L760 443 Q763 443 763 446 L763 510 Q763 513 760 513 L690 513 Q687 513 687 516 L687 540" class="aw"/>

  <!-- 10 → 11 -->
  <line x1="690" y1="484" x2="690" y2="540" class="aw"/>

  <!-- 08 → 12 -->
  <path d="M200 584 L200 620 Q200 623 203 623 L440 623 Q443 623 443 626 L443 740" class="al"/>

  <!-- 11 → 12 -->
  <path d="M690 584 L690 620 Q690 623 687 623 L440 623 Q437 623 437 626 L437 740" class="aw"/>

  <!-- 12 → 13 -->
  <path d="M440 784 L440 940" class="al"/>

  <!-- Legend -->
  <rect x="620" y="990" width="240" height="55" fill="rgba(0,0,0,0.4)" rx="6" stroke="#333"/>
  <line x1="635" y1="1010" x2="680" y2="1010" stroke="#4a90d9" stroke-width="2" marker-end="url(#a)"/>
  <text x="690" y="1014" fill="#aaa" font-size="10">必須の依存関係</text>
  <line x1="635" y1="1030" x2="680" y2="1030" stroke="#666" stroke-width="1.2" stroke-dasharray="5,3" marker-end="url(#b)"/>
  <text x="690" y="1034" fill="#aaa" font-size="10">参考の依存関係</text>

</svg>
